<?xml version="1.0"?>
<svg xmlns="http://www.w3.org/2000/svg" height="320" width="320" xmlns:xlink="http://www.w3.org/1999/xlink">
<defs>
<linearGradient id="a">
<stop stop-color="#ffeb00" offset="0"/>
<stop stop-color="#ff8d00" offset="1"/>
</linearGradient>
<radialGradient id="h" xlink:href="#a" gradientUnits="userSpaceOnUse" cy="155" cx="-76.2" gradientTransform="matrix(0 -1.84 .925 0 110 -35.7)" r="35.9"/>
<radialGradient id="f" xlink:href="#a" gradientUnits="userSpaceOnUse" cy="158" cx="-99.9" gradientTransform="matrix(1.48 0 0 1.95 364 -75.8)" r="35.9"/>
<radialGradient id="e" xlink:href="#a" gradientUnits="userSpaceOnUse" cy="158" cx="-99.9" gradientTransform="matrix(1.47 0 0 .656 380 187)" r="35.9"/>
<radialGradient id="d" xlink:href="#a" gradientUnits="userSpaceOnUse" cy="158" cx="-99.9" gradientTransform="matrix(1.61 0 0 .717 398 142)" r="35.9"/>
<radialGradient id="c" xlink:href="#a" gradientUnits="userSpaceOnUse" cy="158" cx="-99.9" gradientTransform="matrix(1.74 0 0 .662 414 113)" r="35.9"/>
<radialGradient id="b" xlink:href="#a" gradientUnits="userSpaceOnUse" cy="158" cx="-99.9" gradientTransform="matrix(1.53 0 0 .648 396 71.9)" r="35.9"/>
<radialGradient id="g" gradientUnits="userSpaceOnUse" cy="143" cx="127" r="144">
<stop stop-color="#fe0" offset="0"/>
<stop stop-color="#f80" offset="1"/>
</radialGradient>
</defs>
<circle r="151" cy="160" stroke="#a60" cx="160" stroke-width="5.3" fill="url(#g)"/>
<path d="m51.1 193c49.9 57 106 71 174 8" stroke="#620" stroke-linecap="round" stroke-width="14" fill="none"/>
<circle stroke-width="5" stroke="#a60" cy="132" cx="186" r="33.8" fill="#fff"/>
<circle cy="143" cx="180" r="20"/>
<path d="m98.7 87-11.3 3.2c9.7 8.6 18.6 19.8 26.6 28.8-14-6-30.2-5-41.9-7l-22.7 24c8.3 1 16.7 1 25.7 2 11.4 3 23.9 6 35.9 9l23-24-7-5c-11-10-19-22-28.3-31z" fill="#630"/>
<g stroke="#630">
<path d="m234 181c8 22 52 18 57-1 4-33 20-76 12-111-8-46.5-64-50.1-82 .3-7 31.7 9 75.7 13 113z" stroke-width="6" fill="url(#h)"/>
<path d="m188 186c-17 16-14 109 1 117 27 10 55 16 83 0 12-21 12-91 0-117-26-15-55-10-84 0z" stroke-width="5.83" fill="url(#f)"/>
<g stroke-width="6">
<path d="m214 162c-19 6-15 34 1 36 28 0 54 2 85 1 13-7 14-31 0-40-26-4-56 0-86 3z" fill="url(#b)"/>
<path d="m205 275c-18 5-13 34 2 37 26 3 53 7 81 2 12-7 12-31 0-39-26-5-54-4-83 0z" fill="url(#e)"/>
<path d="m207 238c-19 6-17 38 0 41 30 1 60 6 91 2 13-8 14-33 0-43-28-5-59-3-91 0z" fill="url(#d)"/>
<path d="m205 201c-20 5-17 37 0 40 31 1 65 4 98 1 17-6 19-33 1-41-31-3-64-3-99 0z" fill="url(#c)"/>
</g>
</g>
</svg>